<svg version="1.0" xmlns="http://www.w3.org/2000/svg"
 width="512.000000pt" height="512.000000pt" viewBox="0 0 512.000000 512.000000"
 preserveAspectRatio="xMidYMid meet">

<g transform="translate(0.000000,512.000000) scale(0.100000,-0.100000)"
fill="#43655a" stroke="none">
<path d="M1345 5082 c-65 -22 -109 -55 -146 -105 -44 -61 -59 -125 -59 -253
l0 -112 -29 -12 c-16 -6 -43 -25 -61 -43 -90 -88 -92 -213 -5 -306 l44 -47
-206 -234 c-276 -315 -303 -348 -303 -369 0 -36 25 -54 89 -62 49 -7 108 -27
128 -44 2 -1 -10 -38 -27 -83 -114 -313 -176 -647 -187 -1012 -21 -712 181
-1368 591 -1920 69 -93 70 -96 77 -171 11 -126 70 -213 178 -263 46 -21 49
-21 1131 -21 l1085 0 57 28 c101 50 156 134 167 256 7 75 8 78 77 171 311 416
509 923 576 1465 19 162 17 606 -5 765 -35 251 -101 526 -171 715 -15 37 -25
69 -24 70 20 17 80 37 129 44 64 8 89 26 89 62 0 21 -27 54 -303 369 l-206
234 44 47 c85 90 86 205 4 294 -22 24 -52 48 -68 55 l-29 12 -4 131 c-3 107
-7 141 -24 178 -31 66 -78 114 -142 146 l-57 28 -1180 2 c-1100 2 -1183 1
-1230 -15z m2410 -121 c82 -37 105 -90 105 -236 l0 -105 -1300 0 -1300 0 0
105 c0 146 23 199 105 236 38 18 95 19 1195 19 1100 0 1157 -1 1195 -19z m214
-475 c66 -35 66 -137 0 -172 -24 -12 -233 -14 -1408 -14 -1049 0 -1386 3
-1406 12 -69 31 -71 137 -4 174 37 21 2778 20 2818 0z m158 -573 l232 -266
-70 -35 c-46 -23 -102 -65 -165 -124 -130 -121 -174 -143 -284 -143 -111 0
-156 24 -289 149 -111 105 -172 139 -280 158 -56 9 -86 9 -142 0 -108 -19
-169 -53 -280 -158 -133 -125 -178 -149 -289 -149 -110 0 -155 23 -286 146
-112 105 -184 145 -294 162 -148 23 -265 -23 -415 -162 -134 -125 -175 -146
-285 -146 -110 0 -153 22 -285 145 -67 62 -120 101 -166 124 l-68 32 232 267
232 266 1335 0 1335 0 232 -266z m-2072 -405 c28 -14 95 -68 150 -119 112
-104 184 -144 289 -161 149 -25 273 23 420 161 131 123 176 146 286 146 111 0
152 -22 288 -148 113 -107 173 -140 281 -159 140 -24 279 21 388 125 l63 60
14 -35 c8 -19 31 -86 50 -149 202 -669 177 -1389 -71 -2019 -88 -224 -244
-502 -393 -702 l-35 -47 -1225 0 -1225 0 -35 47 c-163 218 -337 540 -425 785
-203 569 -229 1201 -74 1809 20 82 88 299 95 307 2 2 32 -22 66 -54 111 -103
251 -149 384 -127 106 18 178 58 287 161 135 126 189 152 302 147 51 -2 84
-10 120 -28z m1693 -3213 c-7 -57 -47 -111 -102 -136 -39 -18 -87 -19 -1086
-19 -999 0 -1047 1 -1086 19 -55 25 -95 79 -102 136 l-5 45 1193 0 1193 0 -5
-45z"/>
<path d="M2333 2667 c-117 -68 -216 -126 -220 -131 -4 -4 -10 -111 -13 -238
l-5 -231 -178 -103 c-99 -56 -187 -110 -198 -120 -18 -16 -19 -34 -19 -269 0
-186 3 -255 13 -267 15 -19 429 -258 447 -258 7 0 100 50 207 111 l194 112
193 -112 c106 -61 199 -111 207 -111 18 0 431 239 447 258 9 12 12 81 12 267
0 237 -1 253 -19 269 -11 10 -100 64 -198 121 l-178 103 -5 230 c-3 134 -9
235 -15 240 -21 20 -432 252 -446 252 -8 0 -109 -56 -226 -123z m400 -107
l167 -95 -3 -199 -2 -198 -160 -94 c-88 -51 -167 -93 -175 -93 -8 0 -87 42
-175 93 l-160 94 -2 199 -3 198 168 96 c92 54 170 96 173 95 3 0 81 -44 172
-96z m-398 -694 l160 -94 2 -198 3 -199 -170 -97 -170 -97 -170 97 -170 97 3
198 2 199 160 94 c88 51 167 93 175 93 8 0 87 -42 175 -93z m800 0 l160 -94 2
-198 3 -199 -170 -97 -170 -97 -170 97 -170 97 3 198 2 199 160 94 c88 51 167
93 175 93 8 0 87 -42 175 -93z"/>
</g>
</svg>
