<?xml version="1.0" encoding="utf-8"?>
<!-- Generator: Adobe Illustrator 24.1.1, SVG Export Plug-In . SVG Version: 6.00 Build 0)  -->
<svg version="1.1" id="Layer_1" xmlns="http://www.w3.org/2000/svg" xmlns:xlink="http://www.w3.org/1999/xlink" x="0px" y="0px"
	 viewBox="0 0 512 512" style="enable-background:new 0 0 512 512;" xml:space="preserve">
<style type="text/css">
	.st0{fill-rule:evenodd;clip-rule:evenodd;fill:#BD3D44;}
	.st1{fill-rule:evenodd;clip-rule:evenodd;fill:#FFFFFF;}
	.st2{fill-rule:evenodd;clip-rule:evenodd;fill:#192F5D;}
</style>
<g>
	<path class="st0" d="M0,121.3h512V142H0V121.3z M0,162.7h512v20.7H0V162.7z M0,204.2h512v20.7H0V204.2z M0,245.6h512v20.7H0V245.6z
		 M0,287.1h512v20.7H0V287.1z M0,328.6h512v20.7H0V328.6z M0,370h512v20.7H0V370z"/>
	<path class="st1" d="M0,142h512v20.7H0V142z M0,183.4h512v20.7H0V183.4z M0,224.9h512v20.7H0V224.9z M0,266.4h512v20.7H0V266.4z
		 M0,307.8h512v20.7H0V307.8z M0,349.3h512V370H0V349.3z"/>
	<rect y="121.3" class="st2" width="204.8" height="145.1"/>
	<path class="st1" d="M17.1,127.5l1.9,5.7h6l-4.9,3.5l1.9,5.7l-4.9-3.5l-4.9,3.5l1.9-5.7l-4.9-3.5h6L17.1,127.5z M51.2,127.5
		l1.9,5.7h6l-4.9,3.5l1.9,5.7l-4.9-3.5l-4.9,3.5l1.9-5.7l-4.9-3.5h6L51.2,127.5z M85.3,127.5l1.9,5.7h6l-4.9,3.5l1.9,5.7l-4.9-3.5
		l-4.9,3.5l1.9-5.7l-4.9-3.5h6L85.3,127.5z M119.5,127.5l1.9,5.7h6l-4.9,3.5l1.9,5.7l-4.9-3.5l-4.9,3.5l1.9-5.7l-4.9-3.5h6
		L119.5,127.5z M153.6,127.5l1.9,5.7h6l-4.9,3.5l1.9,5.7l-4.9-3.5l-4.9,3.5l1.9-5.7l-4.9-3.5h6L153.6,127.5z M187.7,127.5l1.9,5.7h6
		l-4.9,3.5l1.9,5.7l-4.9-3.5l-4.9,3.5l1.9-5.7l-4.9-3.5h6L187.7,127.5z M34.1,142l1.9,5.7h6l-4.9,3.5L39,157l-4.9-3.5l-4.9,3.5
		l1.9-5.7l-4.9-3.5h6L34.1,142z M68.3,142l1.9,5.7h6l-4.9,3.5l1.9,5.7l-4.9-3.5l-4.9,3.5l1.9-5.7l-4.9-3.5h6L68.3,142z M102.4,142
		l1.9,5.7h6l-4.9,3.5l1.9,5.7l-4.9-3.5l-4.9,3.5l1.9-5.7l-4.9-3.5h6L102.4,142z M136.5,142l1.9,5.7h6l-4.9,3.5l1.9,5.7l-4.9-3.5
		l-4.9,3.5l1.9-5.7l-4.9-3.5h6L136.5,142z M170.7,142l1.9,5.7h6l-4.9,3.5l1.9,5.7l-4.9-3.5l-4.9,3.5l1.9-5.7l-4.9-3.5h6L170.7,142z
		 M17.1,156.5l1.9,5.7h6l-4.9,3.5l1.9,5.7l-4.9-3.5l-4.9,3.5l1.9-5.7l-4.9-3.5h6L17.1,156.5z M51.2,156.5l1.9,5.7h6l-4.9,3.5
		l1.9,5.7l-4.9-3.5l-4.9,3.5l1.9-5.7l-4.9-3.5h6L51.2,156.5z M85.3,156.5l1.9,5.7h6l-4.9,3.5l1.9,5.7l-4.9-3.5l-4.9,3.5l1.9-5.7
		l-4.9-3.5h6L85.3,156.5z M119.5,156.5l1.9,5.7h6l-4.9,3.5l1.9,5.7l-4.9-3.5l-4.9,3.5l1.9-5.7l-4.9-3.5h6L119.5,156.5z M153.6,156.5
		l1.9,5.7h6l-4.9,3.5l1.9,5.7l-4.9-3.5l-4.9,3.5l1.9-5.7l-4.9-3.5h6L153.6,156.5z M187.7,156.5l1.9,5.7h6l-4.9,3.5l1.9,5.7l-4.9-3.5
		l-4.9,3.5l1.9-5.7l-4.9-3.5h6L187.7,156.5z M34.1,171l1.9,5.7h6l-4.9,3.5L39,186l-4.9-3.5l-4.9,3.5l1.9-5.7l-4.9-3.5h6L34.1,171z
		 M68.3,171l1.9,5.7h6l-4.9,3.5l1.9,5.7l-4.9-3.5l-4.9,3.5l1.9-5.7l-4.9-3.5h6L68.3,171z M102.4,171l1.9,5.7h6l-4.9,3.5l1.9,5.7
		l-4.9-3.5l-4.9,3.5l1.9-5.7l-4.9-3.5h6L102.4,171z M136.5,171l1.9,5.7h6l-4.9,3.5l1.9,5.7l-4.9-3.5l-4.9,3.5l1.9-5.7l-4.9-3.5h6
		L136.5,171z M170.7,171l1.9,5.7h6l-4.9,3.5l1.9,5.7l-4.9-3.5l-4.9,3.5l1.9-5.7l-4.9-3.5h6L170.7,171z M17.1,185.5l1.9,5.7h6
		l-4.9,3.5l1.9,5.7l-4.9-3.5l-4.9,3.5l1.9-5.7l-4.9-3.5h6L17.1,185.5z M51.2,185.5l1.9,5.7h6l-4.9,3.5l1.9,5.7l-4.9-3.5l-4.9,3.5
		l1.9-5.7l-4.9-3.5h6L51.2,185.5z M85.3,185.5l1.9,5.7h6l-4.9,3.5l1.9,5.7l-4.9-3.5l-4.9,3.5l1.9-5.7l-4.9-3.5h6L85.3,185.5z
		 M119.5,185.5l1.9,5.7h6l-4.9,3.5l1.9,5.7l-4.9-3.5l-4.9,3.5l1.9-5.7l-4.9-3.5h6L119.5,185.5z M153.6,185.5l1.9,5.7h6l-4.9,3.5
		l1.9,5.7l-4.9-3.5l-4.9,3.5l1.9-5.7l-4.9-3.5h6L153.6,185.5z M187.7,185.5l1.9,5.7h6l-4.9,3.5l1.9,5.7l-4.9-3.5l-4.9,3.5l1.9-5.7
		l-4.9-3.5h6L187.7,185.5z M34.1,200l1.9,5.7h6l-4.9,3.5L39,215l-4.9-3.5l-4.9,3.5l1.9-5.7l-4.9-3.5h6L34.1,200z M68.3,200l1.9,5.7
		h6l-4.9,3.5l1.9,5.7l-4.9-3.5l-4.9,3.5l1.9-5.7l-4.9-3.5h6L68.3,200z M102.4,200l1.9,5.7h6l-4.9,3.5l1.9,5.7l-4.9-3.5l-4.9,3.5
		l1.9-5.7l-4.9-3.5h6L102.4,200z M136.5,200l1.9,5.7h6l-4.9,3.5l1.9,5.7l-4.9-3.5l-4.9,3.5l1.9-5.7l-4.9-3.5h6L136.5,200z
		 M170.7,200l1.9,5.7h6l-4.9,3.5l1.9,5.7l-4.9-3.5l-4.9,3.5l1.9-5.7l-4.9-3.5h6L170.7,200z"/>
	<path class="st1" d="M17.1,214.5l1.9,5.7h6l-4.9,3.5l1.9,5.7l-4.9-3.5l-4.9,3.5l1.9-5.7l-4.9-3.5h6L17.1,214.5z M51.2,214.5
		l1.9,5.7h6l-4.9,3.5l1.9,5.7l-4.9-3.5l-4.9,3.5l1.9-5.7l-4.9-3.5h6L51.2,214.5z M85.3,214.5l1.9,5.7h6l-4.9,3.5l1.9,5.7l-4.9-3.5
		l-4.9,3.5l1.9-5.7l-4.9-3.5h6L85.3,214.5z M119.5,214.5l1.9,5.7h6l-4.9,3.5l1.9,5.7l-4.9-3.5l-4.9,3.5l1.9-5.7l-4.9-3.5h6
		L119.5,214.5z M153.6,214.5l1.9,5.7h6l-4.9,3.5l1.9,5.7l-4.9-3.5l-4.9,3.5l1.9-5.7l-4.9-3.5h6L153.6,214.5z M187.7,214.5l1.9,5.7h6
		l-4.9,3.5l1.9,5.7l-4.9-3.5l-4.9,3.5l1.9-5.7l-4.9-3.5h6L187.7,214.5z M34.1,229l1.9,5.7h6l-4.9,3.5l1.9,5.7l-4.9-3.5l-4.9,3.5
		l1.9-5.7l-4.9-3.5h6L34.1,229z M68.3,229l1.9,5.7h6l-4.9,3.5l1.9,5.7l-4.9-3.5l-4.9,3.5l1.9-5.7l-4.9-3.5h6L68.3,229z M102.4,229
		l1.9,5.7h6l-4.9,3.5l1.9,5.7l-4.9-3.5l-4.9,3.5l1.9-5.7l-4.9-3.5h6L102.4,229z M136.5,229l1.9,5.7h6l-4.9,3.5l1.9,5.7l-4.9-3.5
		l-4.9,3.5l1.9-5.7l-4.9-3.5h6L136.5,229z M170.7,229l1.9,5.7h6l-4.9,3.5l1.9,5.7l-4.9-3.5l-4.9,3.5l1.9-5.7l-4.9-3.5h6L170.7,229z"
		/>
	<path class="st1" d="M17.1,243.6l1.9,5.7h6l-4.9,3.5l1.9,5.7l-4.9-3.5l-4.9,3.5l1.9-5.7l-4.9-3.5h6L17.1,243.6z M51.2,243.6
		l1.9,5.7h6l-4.9,3.5l1.9,5.7l-4.9-3.5l-4.9,3.5l1.9-5.7l-4.9-3.5h6L51.2,243.6z M85.3,243.6l1.9,5.7h6l-4.9,3.5l1.9,5.7l-4.9-3.5
		l-4.9,3.5l1.9-5.7l-4.9-3.5h6L85.3,243.6z M119.5,243.6l1.9,5.7h6l-4.9,3.5l1.9,5.7l-4.9-3.5l-4.9,3.5l1.9-5.7l-4.9-3.5h6
		L119.5,243.6z M153.6,243.6l1.9,5.7h6l-4.9,3.5l1.9,5.7l-4.9-3.5l-4.9,3.5l1.9-5.7l-4.9-3.5h6L153.6,243.6z M187.7,243.6l1.9,5.7h6
		l-4.9,3.5l1.9,5.7l-4.9-3.5l-4.9,3.5l1.9-5.7l-4.9-3.5h6L187.7,243.6z"/>
</g>
</svg>
